<?xml version="1.0" encoding="utf-8"?>
<!-- Generator: Adobe Illustrator 21.0.0, SVG Export Plug-In . SVG Version: 6.00 Build 0)  -->
<svg version="1.1" xmlns="http://www.w3.org/2000/svg" xmlns:xlink="http://www.w3.org/1999/xlink" x="0px" y="0px"
	 viewBox="0 0 1280 1024" style="enable-background:new 0 0 1280 1024;" xml:space="preserve">
<style type="text/css">
	.st0{display:none;}
	.st1{display:inline;fill:none;stroke:#2D3436;stroke-width:8;stroke-miterlimit:10;}
	.st2{display:inline;fill:none;stroke:#2D3436;stroke-width:2;stroke-miterlimit:10;}
	.st3{display:inline;}
	.st4{fill:none;}
	.st5{fill:#2D3436;}
	.st6{font-family:'MyriadPro-Regular';}
	.st7{font-size:65px;}
	.st8{font-size:90.5615px;}
	.st9{font-size:75.7582px;}
	.st10{fill:#2D3436;stroke:#323232;stroke-miterlimit:10;}
	.st11{fill:#FFFFFF;stroke:#FFFFFF;stroke-miterlimit:10;}
	.st12{fill:#323232;stroke:#323232;stroke-miterlimit:10;}
	.st13{fill:#FFFFFF;stroke:#323232;stroke-width:9;stroke-miterlimit:10;}
	.st14{fill:#FFFFFF;stroke:#323232;stroke-width:12;stroke-miterlimit:10;}
	.st15{fill:#FFFFFF;stroke:#323232;stroke-width:21;stroke-miterlimit:10;}
	.st16{fill:#FFFFFF;stroke:#323232;stroke-width:15;stroke-miterlimit:10;}
</style>
<g id="Capa_5" class="st0">
	<circle class="st1" cx="639.8" cy="444.7" r="256"/>
	<circle class="st2" cx="639.4" cy="442.9" r="241"/>
</g>
<g id="Capa_2" class="st0">
	<g class="st3">
		<rect x="296" y="853.5" class="st4" width="331.5" height="151.5"/>
		<text transform="matrix(1 0 0 1 296.04 899.6191)" class="st5 st6 st7">Ventas</text>
	</g>
	<g class="st3">
		<rect x="502" y="852.5" class="st4" width="482.5" height="151.5"/>
		<text transform="matrix(1 0 0 1 502 898.6182)" class="st5 st6 st7">04122005260</text>
	</g>
</g>
<g id="Capa_3" class="st0">
	<g class="st3">
		<rect x="285.3" y="748" class="st4" width="663.6" height="151.5"/>
		<text transform="matrix(1 0 0 1 323.4087 812.334)" class="st5 st6 st8">Carlos Espinoza</text>
	</g>
	<g class="st3">
		<rect x="413.3" y="748" class="st4" width="663.6" height="151.5"/>
		<text transform="matrix(1 0 0 1 577.3774 812.334)" class="st5 st6 st8">Espinoza</text>
	</g>
</g>
<g id="Capa_4" class="st0">
	<g class="st3">
		<rect x="337.4" y="72.3" class="st4" width="585.2" height="65.2"/>
		<text transform="matrix(1 0 0 1 369.1914 126.0503)"><tspan x="0" y="0" class="st5 st6 st9">Gas </tspan><tspan x="131.5" y="0" class="st10 st6 st9">Refrigerante</tspan></text>
	</g>
</g>
<g id="Capa_1">
	<g>
		<path class="st5" d="M811.4,185.5l-0.2-0.1l-28.1-1.6v1H699v-35.5c15.1-6.3,25.8-22.3,25.8-41.1c0-24.3-17.9-44-40-44
			c-22,0-40,19.8-40,44c0,18.8,10.8,34.8,25.8,41.1v35.5h-84.1l0.2,0.6c-9.4-1-18.9,0.5-28.3,0l-0.2,0.1
			c-92.6,8-165.8,93.6-165.8,197.6v388.6c0,73.6,49.6,159.4,114.5,167.2l1.1,22.4c0,8.6,6.3,15.6,14.1,15.6h325
			c7.8,0,14.1-7,14.1-15.6l1.1-22.4c64.9-7.8,114.5-93.6,114.5-167.2V383.1C977.2,279,904,193.4,811.4,185.5z M684.9,95.4
			c6.4,0,11.7,5.8,11.7,12.9c0,7.1-5.2,12.9-11.7,12.9s-11.7-5.8-11.7-12.9C673.2,101.2,678.4,95.4,684.9,95.4z M833.2,945.8H536.5
			V939h296.7V945.8z M947.9,787.3C941,841.6,897.1,908,845.9,908H516.7c-51.2,0-87.9-66.3-94.8-120.6h0.9l-1.9-387.9l0-31.2
			C428,283.4,493.7,216,572.5,216h224.7c78.8,0,143.8,66.6,151,151.5l0.7,0.7L947,787.3H947.9z"/>
		<path class="st11" d="M331.3,939.6"/>
		<path class="st11" d="M910.9,908.4"/>
		<g>
			<path class="st12" d="M809.3,602.7l-31.6-18.3l26.7-15.9c4.3-2.1,5.6-7.8,3.2-12.1c-2.5-4.3-7.8-5.3-11.9-2.9L760,574.4
				l-56.6-32.9l56.6-32.6l35.6,20.8c1.1,0.8,2.5,1.3,4.1,1.3c3,0,5.7-1.4,7.8-4.1c2.4-4.3,1.1-10-3.2-12.1l-26.7-15.9l31.6-18.3
				c4.1-2.4,5.5-7.7,3.2-12.1c-2.3-4.2-7.8-5.7-12.1-3.2l-31.8,18.4l-0.5-31.8c-0.1-4.9-3.8-8.9-8.7-8.9c-4.9,0-8.8,4.3-8.7,8.9
				l0.3,42l-56.3,32.6v-66.1l35.4-20.2c4.1-2.3,5.9-7.8,3.5-12.1c-2.5-4.3-7.6-5.6-11.9-3.2l-27,15.3v-36.1c0-4.9-4-8.9-8.9-8.9
				s-8.7,4-8.7,8.9v36.4l-28-15.6c-4.4-2.4-9.3-1.1-11.8,3.2c-2.5,4.3-0.9,9.7,3.3,12.1l36.4,20.5v65.5l-57.5-33.2l0.3-41
				c0.5-4.6-3.7-8.9-8.6-8.9H611c-4.6,0-8.7,4-8.7,8.9l-0.3,30.8l-31-17.8c-4.3-2.5-9.7-1-11.9,3.2c-2.4,4.4-1.1,9.6,3.2,12.1
				l31.3,18.1l-27.3,16.4c-4.3,2.1-5.6,7.8-3,12.1c1.7,2.7,4.1,4.1,7.5,4.1c1.7,0,3.2-0.4,4.6-1.3l35.8-21.1l57.4,32.9L611,574.7
				l-35.8-21.2c-4.3-2.5-9.8-1.3-12.1,2.9c-2.4,4.4-1.1,9.6,3,12.1l27.3,16.2L562.2,603c-4.3,2.5-5.7,7.8-3.2,12.1
				c1.8,3,4.1,4.4,7.5,4.4c0.8,0,2.4-0.5,4.5-1.3l31-17.8l0.3,30.8c0.1,4.9,4.1,8.7,8.7,8.7h0.3c4.9,0,8.6-4.1,8.6-9.1l-0.3-41
				l57.5-32.9v65.1l-36.4,20.5c-4.3,2.4-5.9,7.8-3.3,12.1c1.8,3,4.1,4.5,7.5,4.5c1.6,0,3.1-0.3,4.3-1l28-15.9v37
				c0,4.9,3.8,8.7,8.7,8.7s8.9-3.8,8.9-8.7V643l27,15.3c1.2,0.7,2.7,1,4.1,1c3.5,0,6.1-1.4,7.8-4.5c2.4-4.3,0.9-9.6-3.5-12.1
				l-35.4-19.9v-66.1l56.3,32.6l-0.3,41.6c0,4.9,3.8,9.1,8.7,9.1c4.9,0,8.7-3.8,8.7-8.7l0.5-32l31.8,18.6c1.2,0.7,2.9,0.9,4.6,0.9
				c3.3,0,5.8-1.4,7.5-4.1C815.1,610.5,813.4,605.1,809.3,602.7z"/>
		</g>
		<polyline class="st13" points="392.6,732 842.5,732.9 946.1,732 		"/>
		<line class="st13" x1="397.3" y1="352.7" x2="460.7" y2="352.7"/>
		<line class="st13" x1="975.6" y1="352.7" x2="518.3" y2="352.7"/>
		<g>
			<line class="st14" x1="833.3" y1="49" x2="798.2" y2="194.5"/>
			<line class="st15" x1="839.3" y1="90.7" x2="852.3" y2="52.6"/>
			<line class="st16" x1="826.1" y1="142.3" x2="808.5" y2="186"/>
		</g>
		<g>
			<line class="st14" x1="540.5" y1="56.2" x2="575.5" y2="196.9"/>
			<line class="st15" x1="534.4" y1="96.5" x2="521.4" y2="59.6"/>
			<line class="st16" x1="547.6" y1="146.4" x2="565.2" y2="188.6"/>
		</g>
	</g>
</g>
</svg>
